<svg version="1.1" xmlns="http://www.w3.org/2000/svg" viewBox="0 0 1044.63671875 639.1207275390625" width="1044.63671875" height="639.1207275390625">
  <!-- svg-source:excalidraw -->
  
  <defs>
    <style>
      @font-face {
        font-family: "Virgil";
        src: url("https://excalidraw.com/Virgil.woff2");
      }
      @font-face {
        font-family: "Cascadia";
        src: url("https://excalidraw.com/Cascadia.woff2");
      }
    </style>
  </defs>
  <rect x="0" y="0" width="1044.63671875" height="639.1207275390625" fill="#ffffff"></rect><g stroke-linecap="round" transform="translate(751.35546875 302.847412109375) rotate(0 92.265625 28.48046875)"><path d="M-1.23 0.64 C62.5 2.97, 123.03 -0.19, 183.16 -1.2 M-0.12 -0.98 C59.71 1.95, 116.62 1.1, 185.03 0.71 M186.22 -1.22 C182.92 17.17, 185.42 34.34, 185.34 56.09 M184.51 0.55 C185.14 15.27, 183.99 30.61, 183.94 56.12 M186.41 55.35 C110.75 59.42, 37.44 58.1, -0.61 58.95 M184.92 57.37 C111.82 58.03, 40.33 58.07, 0.76 57.94 M0.39 58.58 C0.65 39.96, -0.02 25.24, 1.85 0.99 M-0.8 57.88 C-1.13 40.38, -0.9 24.59, 0.72 0.48" stroke="#000000" stroke-width="1" fill="none"></path></g><g transform="translate(468.515625 163.023193359375) rotate(0 32 12.5)"><text x="0" y="18" font-family="Virgil, Segoe UI Emoji" font-size="20px" fill="#000000" text-anchor="start" style="white-space: pre;" direction="ltr">Feeder</text></g><g transform="translate(757.38671875 312.661865234375) rotate(0 87.5 12.5)"><text x="87.5" y="18" font-family="Virgil, Segoe UI Emoji" font-size="20px" fill="#000000" text-anchor="middle" style="white-space: pre;" direction="ltr">InMemoryIndex[A]</text></g><g transform="translate(783.2578125 336.409912109375) rotate(0 56 12.5)"><text x="0" y="18" font-family="Virgil, Segoe UI Emoji" font-size="20px" fill="#000000" text-anchor="start" style="white-space: pre;" direction="ltr">(key, value)</text></g><g transform="translate(351.0546875 165.081787109375) rotate(0 35 12.5)"><text x="0" y="18" font-family="Virgil, Segoe UI Emoji" font-size="20px" fill="#000000" text-anchor="start" style="white-space: pre;" direction="ltr">Decode</text></g><g transform="translate(351.5546875 102.527099609375) rotate(0 39.5 12.5)"><text x="0" y="18" font-family="Virgil, Segoe UI Emoji" font-size="20px" fill="#000000" text-anchor="start" style="white-space: pre;" direction="ltr">Extract</text></g><g stroke-linecap="round" transform="translate(340.91796875 94.859130859375) rotate(0 43.90625 20.390625)"><path d="M1.84 1.19 C28.6 -1.69, 59.57 1.01, 88.8 0.42 M0.98 1 C24.35 0.86, 49.87 -0.08, 88.4 -0.95 M88.98 -1.17 C88.29 11.21, 88.66 19.1, 89.45 40.66 M88.67 0.65 C88.82 14.31, 88.03 27.29, 86.94 41.39 M87.94 40.23 C61.1 39.37, 36.66 41.88, 0.64 39.82 M88.1 40.42 C61.69 41.69, 35.38 41.9, -0.57 41.62 M0.22 38.79 C0.3 29.39, 0.3 21.46, -1.59 -0.16 M0 39.8 C0.14 29.2, 0.47 16.81, 0.07 -0.97" stroke="#000000" stroke-width="1" fill="none"></path></g><g stroke-linecap="round" transform="translate(458.62109375 154.804443359375) rotate(0 40.41796875 19.62109375)"><path d="M-1.35 0.71 C30.59 -0.46, 59.21 -0.24, 78.94 0.44 M-0.05 0.66 C21.92 0.06, 44.77 0.48, 81.29 0.74 M80.13 1.52 C82.25 10.86, 81.49 23.41, 79.58 41.08 M81.01 -0.49 C81.15 12.87, 81.29 25.93, 80.91 39.06 M78.99 40.16 C54.25 38.12, 31.58 37.94, -1.49 41.02 M81.05 39.37 C50.42 39.44, 20.33 39.62, -0.27 39.48 M1.81 38.89 C0.29 25.57, 1.53 12.28, 1.16 -0.06 M0.79 38.86 C-0.37 26.57, -0.45 13.25, -0.8 0.97" stroke="#000000" stroke-width="1" fill="none"></path></g><g stroke-linecap="round" transform="translate(343.19140625 159.343505859375) rotate(0 39.3671875 18.20703125)"><path d="M-1.47 1.33 C22.35 1.15, 45.51 1.83, 79.45 0.2 M-0.69 -0.65 C25.51 0.97, 50.04 0.53, 78.05 0.59 M77.93 0.91 C79.08 12.67, 79.26 28.46, 79.15 36.4 M79.29 0.35 C79.06 11.66, 79.6 24.01, 78.37 35.7 M77.08 37.38 C52.3 34.47, 27.96 34.74, 1.75 35.95 M79.3 35.97 C51.33 36.53, 25.2 36.53, -0.79 36.15 M0.41 36.94 C0.57 24.07, 1.29 12.31, -1.92 -1.16 M-0.89 35.89 C0.77 27.3, -0.69 18.09, 0.65 -0.3" stroke="#000000" stroke-width="1" fill="none"></path></g><g transform="translate(729.1796875 94.495849609375) rotate(0 31 12.5)"><text x="0" y="18" font-family="Virgil, Segoe UI Emoji" font-size="20px" fill="#000000" text-anchor="start" style="white-space: pre;" direction="ltr">Ticket</text></g><g transform="translate(840.50390625 93.281005859375) rotate(0 22.5 12.5)"><text x="0" y="18" font-family="Virgil, Segoe UI Emoji" font-size="20px" fill="#000000" text-anchor="start" style="white-space: pre;" direction="ltr">User</text></g><g stroke-linecap="round" transform="translate(724.34375 91.218505859375) rotate(0 36.734375 16.36328125)"><path d="M-1.13 -0.4 C25.24 1.88, 46.9 1.86, 74.02 -1.89 M-0.85 -0.75 C22.23 1.1, 45.5 0.21, 73.82 -0.32 M74 1.47 C72.96 10.97, 73.14 23.33, 72.8 31.94 M72.49 0.47 C72.82 8.92, 73.96 18.61, 73.16 31.91 M74.62 31.67 C57.02 34.05, 43.1 32.22, -0.54 31.1 M73.44 32.05 C58.16 31.43, 41.26 33.27, -0.43 33.38 M0.8 31.99 C-1.77 22.65, 1.32 13.99, -1.79 1.76 M-0.05 32.4 C0.29 24.9, 0.51 15.44, -0.98 -0.21" stroke="#000000" stroke-width="1" fill="none"></path></g><g stroke-linecap="round" transform="translate(837.3203125 89.394287109375) rotate(0 26.44140625 16.576171875)"><path d="M1.57 1.47 C18.66 -0.4, 36.2 -1.59, 51.86 -1.03 M-0.92 -0.83 C16.62 -0.64, 32.06 -0.45, 52.46 0.97 M51.82 1.18 C52.05 9.48, 54.52 21.63, 52.04 32.41 M53.41 0.38 C52.18 8.81, 52.56 20.36, 52.15 33.93 M54.81 32.44 C41.28 32.56, 26.97 34.09, 0.31 32.55 M53.35 32.58 C39.45 32.83, 28.25 32.25, -0.1 33.01 M0.73 33.57 C1.91 22.94, -0.6 12.81, -0.67 -0.76 M-0.66 32.65 C0.91 21.55, -0.51 7.99, -0.12 -0.54" stroke="#000000" stroke-width="1" fill="none"></path></g><g stroke-linecap="round" transform="translate(709.09765625 49.26904296875) rotate(0 103.32421875 45.978515625)"><path d="M-0.77 1.58 C47.08 -2.41, 93.95 -1.57, 207.25 -0.64 M0.47 -0.77 C45.54 -0.28, 92.16 -1.38, 206.2 0.42 M207.1 0.87 C206.91 22.43, 205.09 39.72, 207.62 93.11 M206.75 -0.08 C206.59 29.15, 206.82 59.16, 205.84 92.57 M206.06 92.03 C137 93.98, 68.16 93.14, 0.19 93.13 M207.42 92.26 C141.96 92.38, 79.64 92.83, 0.56 92.24 M-1.82 92.58 C1.11 71.07, 1.29 49.84, -0.99 0.69 M-0.7 91.08 C-0.17 61.26, -0.8 30.44, 0.51 0.18" stroke="#000000" stroke-width="1" fill="none"></path></g><g transform="translate(718.328125 54.98388671875) rotate(0 27 12.5)"><text x="0" y="18" font-family="Virgil, Segoe UI Emoji" font-size="20px" fill="#000000" text-anchor="start" style="white-space: pre;" direction="ltr">Model</text></g><g transform="translate(758.96484375 259.41357421875) rotate(0 62.5 12.5)"><text x="0" y="18" font-family="Virgil, Segoe UI Emoji" font-size="20px" fill="#000000" text-anchor="start" style="white-space: pre;" direction="ltr">Document[A]</text></g><g stroke-linecap="round" transform="translate(748.390625 253.45263671875) rotate(0 75.869140625 15.978515625)"><path d="M-0.09 0.99 C49.83 1.2, 99.01 1.36, 150.12 -1.91 M0.12 -0.14 C56.11 -0.4, 110.36 0.78, 151.33 0.95 M151.5 0.74 C150.12 6.99, 150.48 14.6, 153.73 31.14 M152.48 0.24 C152.77 6.43, 152.74 13.81, 152.64 32.71 M151.12 32.74 C104.86 29.74, 56.88 31.73, -1.9 33.67 M152.44 31.93 C105.34 31.29, 60.36 32.34, -0.64 31.35 M0.67 31.51 C-1.41 19.19, 1.27 9.42, -0.21 1.06 M0.55 31.79 C-0.92 20.73, -1.05 8.95, -0.42 0.5" stroke="#000000" stroke-width="1" fill="none"></path></g><g stroke-linecap="round" transform="translate(317.203125 40.83544921875) rotate(0 144.953125 89.24023437500003)"><path d="M-0.53 -0.44 C62.14 1.66, 123.54 1.63, 289.04 -1.36 M0.23 0.36 C72.75 -0.02, 144.33 -0.08, 289.17 0.44 M287.98 1.16 C288.29 35.95, 286.47 70.61, 291.52 178.53 M289.26 0.93 C288.76 69.74, 287.84 140, 289.89 179.43 M289.69 178.91 C208.09 179.2, 126.46 179.72, 0.31 178.78 M289.43 177.99 C205.16 177.14, 119.91 177.66, -0.62 178.66 M-1.27 177.08 C-2.39 114.74, -1.38 52.57, 0.18 1.87 M0.76 178.54 C0.24 137.47, -0.46 95.01, -0.51 -0.73" stroke="#000000" stroke-width="1" fill="none"></path></g><g transform="translate(335.37890625 50.90185546875) rotate(0 32 12.5)"><text x="0" y="18" font-family="Virgil, Segoe UI Emoji" font-size="20px" fill="#000000" text-anchor="start" style="white-space: pre;" direction="ltr">Feeder</text></g><g stroke-linecap="round" transform="translate(716.95703125 197.17919921875) rotate(0 121.490234375 113.380859375)"><path d="M-0.98 -0.58 C86.14 0.35, 172.39 -1.47, 241.47 -1.4 M0.75 -0.52 C71.33 -1.17, 144.25 -0.59, 243.23 0.5 M242.92 0.65 C242.74 84.71, 241.4 172.62, 244.1 227.19 M243.66 -0.53 C243.88 86.39, 243.68 170.46, 243.71 225.92 M242.27 226.22 C191.62 227.83, 140.83 225.14, -0.77 227.62 M243.5 226.02 C188.92 224.24, 136.32 224.26, -0.37 226.17 M-0.01 227.42 C-0.11 168.64, -0.55 111.66, -0.93 1.54 M-0.04 227.48 C0.36 170.28, -0.19 113.05, -0.29 0.81" stroke="#000000" stroke-width="1" fill="none"></path></g><g transform="translate(728.65234375 208.22607421875) rotate(0 59.5 12.5)"><text x="0" y="18" font-family="Virgil, Segoe UI Emoji" font-size="20px" fill="#000000" text-anchor="start" style="white-space: pre;" direction="ltr">SearchIndex</text></g><g transform="translate(449.3984375 98.78857421875) rotate(0 60 12.5)"><text x="0" y="18" font-family="Virgil, Segoe UI Emoji" font-size="20px" fill="#000000" text-anchor="start" style="white-space: pre;" direction="ltr">Transformer</text></g><g stroke-linecap="round" transform="translate(444.796875 93.64794921875) rotate(0 63.89453125 18.142578125)"><path d="M1 -0.66 C30.32 2.26, 64.07 1.74, 129 -0.86 M0.34 -0.24 C33.35 -1.66, 66.78 -0.96, 128.64 0.88 M127.34 -0.6 C125.8 9.2, 128.31 17.41, 129.52 34.89 M126.89 0.09 C128.51 11.26, 126.93 23.26, 127.91 36.06 M128.01 37.09 C77.45 34.3, 28.71 34.79, -1.82 34.84 M127.56 35.89 C84.83 36.82, 43.39 36.97, 0.2 36.03 M-0.12 36.95 C1.16 27.24, 1.83 15.71, 1.35 0.05 M-0.35 36.3 C1.26 23.06, -0.11 10.13, 0.76 0.23" stroke="#000000" stroke-width="1" fill="none"></path></g><g stroke-linecap="round" transform="translate(321.0703125 248.16748046875) rotate(0 168.087890625 93.591796875)"><path d="M-0.75 1.34 C106.45 0.33, 211.96 0.87, 335.95 -1.29 M-0.3 -0.38 C68.13 -0.44, 136 -0.02, 335.6 -0.63 M335.35 1.95 C336.3 37.2, 334.8 76.81, 337.47 187.39 M335.49 0.31 C335.39 74.11, 335.06 147.21, 335.26 187.24 M336.11 187.38 C229.66 186.02, 121.76 185.32, 0.84 186.64 M335.79 187.55 C233.43 187.75, 130.98 187.62, 0.22 186.83 M1.87 186.26 C0.44 120.21, 0.46 53.39, 0.5 1.05 M0.71 186.52 C-1.2 113.76, 0.02 42.05, -0.68 -0.14" stroke="#000000" stroke-width="1" fill="none"></path></g><g transform="translate(335.28125 252.98388671875) rotate(0 56 12.5)"><text x="0" y="18" font-family="Virgil, Segoe UI Emoji" font-size="20px" fill="#000000" text-anchor="start" style="white-space: pre;" direction="ltr">Search API</text></g><g transform="translate(355.03125 298.84716796875) rotate(0 27 12.5)"><text x="0" y="18" font-family="Virgil, Segoe UI Emoji" font-size="20px" fill="#000000" text-anchor="start" style="white-space: pre;" direction="ltr">Query</text></g><g transform="translate(346.8515625 388.74169921875) rotate(0 64 12.5)"><text x="0" y="18" font-family="Virgil, Segoe UI Emoji" font-size="20px" fill="#000000" text-anchor="start" style="white-space: pre;" direction="ltr">SearchResult</text></g><g transform="translate(483.17578125 296.03466796875) rotate(0 83 12.5)"><text x="0" y="18" font-family="Virgil, Segoe UI Emoji" font-size="20px" fill="#000000" text-anchor="start" style="white-space: pre;" direction="ltr">SearchRepository</text></g><g stroke-linecap="round" transform="translate(345.82421875 299.86279296875) rotate(0 36.837890625 15.185546875)"><path d="M1.91 -1.75 C22.72 -0.44, 50.25 0.38, 74.24 1.19 M-0.29 0.81 C24.82 -0.08, 51.56 0.26, 74.61 0.28 M74.14 -1.13 C75.09 8.84, 73.68 18.39, 75.43 29.99 M74.37 0.13 C72.79 10.54, 72.61 21.36, 73.11 29.49 M74.09 28.51 C59.53 31.41, 44.34 28.96, 1.76 28.58 M73.22 30.24 C56.54 31.08, 38.73 31.44, -0.1 30.46 M1.21 30.92 C-1.07 22.03, 1.07 13.22, 1.98 1.4 M-0.74 29.46 C-0.79 24.07, 1.1 16.2, -0.31 -0.05" stroke="#000000" stroke-width="1" fill="none"></path></g><g stroke-linecap="round" transform="translate(341.97265625 384.53076171875) rotate(0 68.80078125 16.693359375)"><path d="M-1.27 -0.63 C28.29 0.03, 57.36 -1.7, 138.7 -1.26 M0.06 -0.34 C28.45 -0.01, 55.69 -1.3, 137.88 0.93 M138.8 -1.61 C137.42 9.23, 136.25 17.24, 137.37 32.12 M138.59 0.46 C138.18 11.04, 137.1 19.77, 136.71 33.47 M137.23 34.44 C87.16 33.89, 40.72 34.6, 1.19 34.56 M137.66 32.84 C103.05 34.15, 67.67 33.5, 0.95 33.44 M-1.21 33.62 C0.33 25.09, 0.7 15.55, 0.3 -1.39 M-0.43 33.97 C0.78 24.04, -0.99 13.86, 0.31 0.64" stroke="#000000" stroke-width="1" fill="none"></path></g><g stroke-linecap="round" transform="translate(479.5234375 292.38232421875) rotate(0 84.6640625 15.69140625)"><path d="M-1.51 -0.07 C36.49 1.41, 77.05 1.87, 170.37 0.63 M-0.91 -0.68 C47.33 -0.23, 95.81 0.57, 170.07 -0.9 M168.52 1.15 C169.84 8.82, 169.76 19.38, 168.4 31.51 M169.73 -0.86 C169.51 6.77, 168.54 13.96, 169.52 30.5 M168.2 29.63 C120.29 32.57, 68.89 31.71, -1.47 30.76 M169.44 31.46 C120.71 33.1, 69.96 32.06, -0.79 31.62 M-0.91 29.39 C-0.16 20.5, -1.43 4.96, -1.32 1.37 M-0.75 31.36 C0.44 23.43, 0.14 14.07, -0.74 -0.13" stroke="#000000" stroke-width="1" fill="none"></path></g><g stroke-linecap="round" transform="translate(68.18359375 96.80029296875) rotate(0 94.673828125 56.615234375)"><path d="M-1.44 -1.36 C55.23 2.31, 113.08 2.59, 189.15 -0.84 M-0.15 -0.2 C38.02 -1.26, 77.54 -0.71, 188.81 0.02 M188.47 1.06 C191.06 39.82, 187.24 83.52, 189.96 112.81 M189.95 0 C188.85 42.46, 188.5 86.34, 189.8 112.44 M188.64 111.3 C117.55 110.75, 47.01 110.94, -0.58 113 M189.63 113.06 C123.29 114.22, 55.07 113.11, 0.42 113.71 M-1.56 115.12 C-0.04 74.26, 1.32 36.9, 1.81 -0.37 M0.87 113.78 C-1.48 77.66, -1.79 42.18, -0.45 0.92" stroke="#000000" stroke-width="1" fill="none"></path></g><g transform="translate(71.36328125 102.86279296875) rotate(0 27 12.5)"><text x="0" y="18" font-family="Virgil, Segoe UI Emoji" font-size="20px" fill="#000000" text-anchor="start" style="white-space: pre;" direction="ltr">Client</text></g><g transform="translate(111.53515625 153.97607421875) rotate(0 59.5 12.5)"><text x="0" y="18" font-family="Virgil, Segoe UI Emoji" font-size="20px" fill="#000000" text-anchor="start" style="white-space: pre;" direction="ltr">SearchClient</text></g><g transform="translate(79.61328125 264.50341796875) rotate(0 16.5 12.5)"><text x="16.5" y="18" font-family="Virgil, Segoe UI Emoji" font-size="20px" fill="#000000" text-anchor="middle" style="white-space: pre;" direction="ltr">App</text></g><g transform="translate(147.8515625 266.60107421875) rotate(0 13.5 12.5)"><text x="0" y="18" font-family="Virgil, Segoe UI Emoji" font-size="20px" fill="#000000" text-anchor="start" style="white-space: pre;" direction="ltr">DI</text></g><g stroke-linecap="round" transform="translate(137.15625 264.50732421875) rotate(0 23.451171875 13.71484375)"><path d="M0.64 -0.42 C13.43 1.53, 25.13 0.49, 46.57 1.47 M0.23 0.22 C14.24 -0.34, 29.32 0.11, 46.67 0.13 M47.52 -0.48 C48.27 8.09, 48.02 11.67, 47.03 26.98 M46.56 0.45 C46.42 7.32, 46.49 17.2, 46.33 27.18 M47.78 27.01 C36.1 27.46, 26.62 27.94, -1.12 29.39 M47.59 26.81 C32.56 27.88, 18.25 26.7, 0.37 28.01 M-1.66 27.51 C1.34 21.05, 1.62 16.96, -0.73 0.43 M0.45 26.71 C1.07 17.28, 0.35 6.79, -0.17 0.84" stroke="#000000" stroke-width="1" fill="none"></path></g><g stroke-linecap="round" transform="translate(103.63671875 146.96044921875) rotate(0 64.525390625 18.1015625)"><path d="M1.25 -0.67 C52.76 0.89, 101.74 0.38, 130.47 -0.68 M0.97 0.02 C26.28 0.63, 51.88 1.77, 128.64 0.13 M128.38 0.33 C127.96 11.74, 129.92 21.22, 129.26 34.64 M128.48 -0.12 C128.14 7.9, 128.66 14.7, 129.85 36.66 M129 37.78 C78.13 34.22, 30.67 35.76, 0.13 36.86 M129.56 36.6 C78.37 36.33, 29.55 36.32, -0.1 36.93 M1.51 35.36 C0.49 21.64, 0.22 8.19, -1.5 1.03 M-0.5 35.29 C-0.72 24.46, 0.03 13.17, 0.04 0.66" stroke="#000000" stroke-width="1" fill="none"></path></g><g stroke-linecap="round" transform="translate(72.4609375 264.08935546875) rotate(0 24.05859375 15.583984375)"><path d="M0.66 1.71 C15.85 0.61, 35.35 0.77, 46.24 -0.57 M0.73 0.93 C14.57 0.62, 29.48 -0.37, 48.4 -0.17 M49.15 0.37 C46.64 8.51, 47.19 17.78, 46.12 30.73 M48.78 0.28 C47.17 9.47, 47.18 17.32, 47.36 31.31 M49.09 29.87 C30.16 31.23, 11.14 31.54, -0.77 29.38 M49.09 30.85 C37.08 31.52, 23.95 31.94, 0.98 31.19 M1.56 31.9 C1.48 20.01, -0.6 8.35, 1.54 0.84 M0.72 32.15 C0.09 20.05, 0.4 9.51, 0.89 -0.08" stroke="#000000" stroke-width="1" fill="none"></path></g><g stroke-linecap="round"><g transform="translate(608.6359413399086 155.99417852210496) rotate(0 54.566010342456195 20.44687303871015)"><path d="M0.74 1.09 C19.13 7.99, 91.22 33.68, 109.47 40.28 M-0.34 0.61 C17.94 7.27, 90 32.13, 108.33 38.5" stroke="#000000" stroke-width="1" fill="none"></path></g><g transform="translate(608.6359413399086 155.99417852210496) rotate(0 54.566010342456195 20.44687303871015)"><path d="M80.14 38.35 C86.26 39.27, 93.72 38.36, 107.33 38.03 M77.52 39.45 C89.02 38.55, 100.47 38.93, 108.43 38.19" stroke="#000000" stroke-width="1" fill="none"></path></g><g transform="translate(608.6359413399086 155.99417852210496) rotate(0 54.566010342456195 20.44687303871015)"><path d="M86.86 18.96 C91.26 24.34, 97.2 27.84, 107.33 38.03 M84.24 20.06 C93.06 26.36, 102 33.98, 108.43 38.19" stroke="#000000" stroke-width="1" fill="none"></path></g></g><g stroke-linecap="round"><g transform="translate(708.9095613030058 308.2114703904796) rotate(0 -25.2922000377705 10.261623648385324)"><path d="M0.95 -0.39 C-7.3 3.28, -41.74 18.62, -50.44 22.16 M-0.01 -1.64 C-8.36 1.64, -43.37 16.36, -51.54 20.24" stroke="#000000" stroke-width="1" fill="none"></path></g><g transform="translate(708.9095613030058 308.2114703904796) rotate(0 -25.2922000377705 10.261623648385324)"><path d="M-32.47 0.84 C-35.52 3.77, -42.1 9.72, -52.15 20.09 M-31.88 0.49 C-37.19 5.14, -41.33 11.06, -51.04 20.75" stroke="#000000" stroke-width="1" fill="none"></path></g><g transform="translate(708.9095613030058 308.2114703904796) rotate(0 -25.2922000377705 10.261623648385324)"><path d="M-24.9 17.94 C-29.65 17.14, -37.91 19.29, -52.15 20.09 M-24.31 17.6 C-31.54 18.21, -37.48 20.07, -51.04 20.75" stroke="#000000" stroke-width="1" fill="none"></path></g></g><g stroke-linecap="round" transform="translate(10 10) rotate(0 483.5078125 220.68359375)"><path d="M0.79 0.59 C305.88 -2.62, 610.97 -3.5, 967.31 0.46 M-0.18 -0.26 C283.46 2.47, 567.36 2.79, 967.29 -0.31 M966.45 0.66 C969.02 112.97, 969.77 225.32, 967.62 440.67 M967.02 -0.04 C966.7 105.18, 966.52 210.42, 966.58 441.2 M966.85 442.01 C592.46 443.86, 217.38 443.97, 0.36 441.43 M967.38 441.65 C749.26 445.27, 531.32 445.49, 0.34 441.47 M0.87 441.26 C1.69 305.44, 0.81 169.97, -0.71 0.01 M0.18 440.91 C-0.06 284.47, -0.33 126.89, 0.33 -0.14" stroke="#000000" stroke-width="1" fill="none"></path></g><g transform="translate(28.70703125 24.57421875) rotate(0 54 12.5)"><text x="0" y="18" font-family="Virgil, Segoe UI Emoji" font-size="20px" fill="#000000" text-anchor="start" style="white-space: pre;" direction="ltr">Search App</text></g><g transform="translate(21.80078125 540.8785400390625) rotate(0 27 12.5)"><text x="0" y="18" font-family="Virgil, Segoe UI Emoji" font-size="20px" fill="#000000" text-anchor="start" style="white-space: pre;" direction="ltr">Query</text></g><g transform="translate(125.80078125 494.8785400390625) rotate(0 28.5 12.5)"><text x="0" y="18" font-family="Virgil, Segoe UI Emoji" font-size="20px" fill="#000000" text-anchor="start" style="white-space: pre;" direction="ltr">entity</text></g><g transform="translate(130.80078125 556.8785400390625) rotate(0 45 12.5)"><text x="0" y="18" font-family="Virgil, Segoe UI Emoji" font-size="20px" fill="#000000" text-anchor="start" style="white-space: pre;" direction="ltr">[ filter ]</text></g><g transform="translate(261.80078125 533.8785400390625) rotate(0 21 12.5)"><text x="0" y="18" font-family="Virgil, Segoe UI Emoji" font-size="20px" fill="#000000" text-anchor="start" style="white-space: pre;" direction="ltr">field</text></g><g transform="translate(267.80078125 565.8785400390625) rotate(0 42.5 12.5)"><text x="0" y="18" font-family="Virgil, Segoe UI Emoji" font-size="20px" fill="#000000" text-anchor="start" style="white-space: pre;" direction="ltr">operator</text></g><g transform="translate(267.9140625 602.4879150390625) rotate(0 25.5 12.5)"><text x="0" y="18" font-family="Virgil, Segoe UI Emoji" font-size="20px" fill="#000000" text-anchor="start" style="white-space: pre;" direction="ltr">value</text></g><g stroke-linecap="round"><g transform="translate(230.2109375 552.1949462890625) rotate(0 12.762063737213623 -4.177200336754311)"><path d="M-0.71 -1.19 C3.84 -2.32, 21.81 -6.2, 26.23 -7.16" stroke="#000000" stroke-width="1.5" fill="none" stroke-dasharray="8 9"></path></g><g transform="translate(230.2109375 552.1949462890625) rotate(0 12.762063737213623 -4.177200336754311)"><path d="M13.86 0.82 C17.03 -1.02, 19.57 -3.53, 26.51 -7.59" stroke="#000000" stroke-width="1.5" fill="none"></path></g><g transform="translate(230.2109375 552.1949462890625) rotate(0 12.762063737213623 -4.177200336754311)"><path d="M11.95 -7.93 C15.5 -7.91, 18.44 -8.56, 26.51 -7.59" stroke="#000000" stroke-width="1.5" fill="none"></path></g></g><g stroke-linecap="round"><g transform="translate(226.71875 574.1988525390625) rotate(0 17.64047954529525 3.012740321457386)"><path d="M-1.2 -0.22 C4.71 0.95, 30.4 5.16, 36.48 6.25" stroke="#000000" stroke-width="1.5" fill="none" stroke-dasharray="8 9"></path></g><g transform="translate(226.71875 574.1988525390625) rotate(0 17.64047954529525 3.012740321457386)"><path d="M18.32 10.58 C26.19 7.68, 33.12 8.42, 34.94 4.83" stroke="#000000" stroke-width="1.5" fill="none"></path></g><g transform="translate(226.71875 574.1988525390625) rotate(0 17.64047954529525 3.012740321457386)"><path d="M20.4 -1.64 C27.39 0.15, 33.52 5.58, 34.94 4.83" stroke="#000000" stroke-width="1.5" fill="none"></path></g></g><g stroke-linecap="round"><g transform="translate(222.29296875 586.5972900390625) rotate(0 19.187687663733982 15.363012976944447)"><path d="M-0.69 -0.08 C5.86 4.92, 32.46 25.55, 39.06 30.8" stroke="#000000" stroke-width="1.5" fill="none" stroke-dasharray="8 9"></path></g><g transform="translate(222.29296875 586.5972900390625) rotate(0 19.187687663733982 15.363012976944447)"><path d="M15.46 25.08 C20.84 27.16, 28.51 27.58, 40.34 30.1" stroke="#000000" stroke-width="1.5" fill="none"></path></g><g transform="translate(222.29296875 586.5972900390625) rotate(0 19.187687663733982 15.363012976944447)"><path d="M25.88 11.79 C28.41 17.56, 33.14 21.74, 40.34 30.1" stroke="#000000" stroke-width="1.5" fill="none"></path></g></g><g stroke-linecap="round"><g transform="translate(84.67578125 536.8394775390625) rotate(0 19.96629466563465 -9.953476400673367)"><path d="M0.38 0.74 C7.1 -2.74, 33.15 -17.11, 39.56 -20.64" stroke="#000000" stroke-width="1.5" fill="none" stroke-dasharray="8 9"></path></g><g transform="translate(84.67578125 536.8394775390625) rotate(0 19.96629466563465 -9.953476400673367)"><path d="M26.13 -4.17 C27.49 -9.43, 31.18 -11.84, 39.01 -20.38" stroke="#000000" stroke-width="1.5" fill="none"></path></g><g transform="translate(84.67578125 536.8394775390625) rotate(0 19.96629466563465 -9.953476400673367)"><path d="M18.77 -17.51 C21.88 -19.67, 27.3 -18.95, 39.01 -20.38" stroke="#000000" stroke-width="1.5" fill="none"></path></g></g><g stroke-linecap="round"><g transform="translate(81.0859375 564.2144775390625) rotate(0 20.561080403625965 3.876225928962185)"><path d="M-0.44 -0.34 C6.42 0.97, 34.41 6.51, 41.57 8.09" stroke="#000000" stroke-width="1.5" fill="none" stroke-dasharray="8 9"></path></g><g transform="translate(81.0859375 564.2144775390625) rotate(0 20.561080403625965 3.876225928962185)"><path d="M19.71 10 C27.52 10.56, 36.32 7.34, 41.05 8.34" stroke="#000000" stroke-width="1.5" fill="none"></path></g><g transform="translate(81.0859375 564.2144775390625) rotate(0 20.561080403625965 3.876225928962185)"><path d="M22.7 -4.4 C29.54 0.92, 37.35 2.49, 41.05 8.34" stroke="#000000" stroke-width="1.5" fill="none"></path></g></g><g stroke-linecap="round" transform="translate(11.08203125 542.9957275390625) rotate(0 33.703125 14.59375)"><path d="M-1.8 1.37 C22.58 -0.7, 45.55 2.27, 68.03 0.09 M68.15 0.36 C66.46 5.48, 68.46 15.28, 65.79 30.52 M67.3 28.97 C49.13 29, 29.9 28.59, -1.78 29.84 M-0.32 30.54 C0.24 22.52, -1.02 14.81, 1.57 0.8" stroke="#000000" stroke-width="1.5" fill="none" stroke-dasharray="8 9"></path></g><g stroke-linecap="round" transform="translate(122.65234375 494.5855712890625) rotate(0 33.990234375 11.9765625)"><path d="M1.5 -1.8 C19.99 -1.62, 37.82 1.26, 68.94 0.56 M69.82 -0.31 C67.28 5.83, 69.11 12.58, 68.05 24.38 M66.05 25.36 C53.75 23.94, 36.14 24.68, -1.74 22.13 M1.86 23.42 C0.8 17.39, -1.06 13.32, 0.12 0.48" stroke="#000000" stroke-width="1.5" fill="none" stroke-dasharray="8 9"></path></g><g stroke-linecap="round" transform="translate(254.68359375 526.6402587890625) rotate(0 28.7265625 14.990234375)"><path d="M1.77 1.06 C19.85 1.82, 42.24 -0.06, 56.6 1.92 M59.1 0.54 C57.23 10.31, 55.95 20.98, 55.8 29.05 M57.13 31.44 C36.31 31.38, 12.07 29.59, -0.64 30.41 M-0.01 28.93 C1.67 20.65, 1.9 9.53, 1.32 0.64" stroke="#000000" stroke-width="1.5" fill="none" stroke-dasharray="8 9"></path></g><g stroke-linecap="round" transform="translate(264.234375 562.8238525390625) rotate(0 46.23828125 15.0234375)"><path d="M0.09 0.54 C31 -1.1, 62.56 1.54, 94.44 1.74 M91.64 0.89 C93.49 5.04, 94.19 14.9, 91.78 29.49 M91.98 28.46 C63.12 30.58, 32.23 29.11, -1.63 28.41 M1.41 31.09 C1.74 23.75, 1.43 15.92, -0.12 1.4" stroke="#000000" stroke-width="1.5" fill="none" stroke-dasharray="8 9"></path></g><g stroke-linecap="round" transform="translate(263.98046875 602.6285400390625) rotate(0 33.111328125 13.24609375)"><path d="M-1.88 0.05 C18.27 0.26, 33.14 -1.34, 64.4 1.04 M65.32 -0.48 C64.51 10.21, 65.66 15.58, 64.82 25.01 M65.03 27.05 C48 28.05, 28.08 25.67, -0.42 27.27 M0.46 27.59 C-0.89 19.72, -1.06 14.39, -0.17 -0.46" stroke="#000000" stroke-width="1.5" fill="none" stroke-dasharray="8 9"></path></g><g transform="translate(401.33984375 522.8121337890625) rotate(0 203.5 12.5)"><text x="0" y="18" font-family="Virgil, Segoe UI Emoji" font-size="20px" fill="#000000" text-anchor="start" style="white-space: pre;" direction="ltr">from:users username==john verified==true</text></g><g transform="translate(411.63671875 578.0269775390625) rotate(0 311.5 12.5)"><text x="0" y="18" font-family="Virgil, Segoe UI Emoji" font-size="20px" fill="#000000" text-anchor="start" style="white-space: pre;" direction="ltr">from:tickets type==task unassigned subject==blah tags=[foo] </text></g><g stroke-linecap="round"><g transform="translate(707.30859375 85.0413818359375) rotate(0 -51.53634410351515 9.615029220283034)"><path d="M-0.95 1.1 C-17.86 4.06, -85.34 15.05, -102.12 18.13" stroke="#000000" stroke-width="1.5" fill="none" stroke-dasharray="8 9"></path></g></g><g transform="translate(758.44921875 376.3773193359375) rotate(0 67.5 12.5)"><text x="0" y="18" font-family="Virgil, Segoe UI Emoji" font-size="20px" fill="#000000" text-anchor="start" style="white-space: pre;" direction="ltr">IndexManager</text></g><g stroke-linecap="round" transform="translate(754.48828125 372.7249755859375) rotate(0 70.4609375 16.23046875)"><path d="M-0.81 1.5 C40.03 1.28, 81.41 0.97, 139.76 -0.35 M-0.5 0.27 C36.78 -0.61, 73.48 -0.47, 140.66 0.12 M139.72 -1.65 C142.45 11.65, 140.51 20.66, 140.35 31.34 M139.99 -0.69 C140.35 8.93, 140.82 19.07, 140.02 31.54 M139.94 33.12 C102.01 31.34, 60.19 32.32, -0.98 32.08 M141.44 33.33 C91 31.3, 40.24 31.9, -0.79 32.2 M1.55 30.68 C1.42 21.99, 0.57 15.59, 0.25 0.6 M-1 32.55 C-0.89 25.08, 0.43 15.72, 0.06 0.47" stroke="#000000" stroke-width="1" fill="none"></path></g><g transform="translate(80.8125 311.2523193359375) rotate(0 28.5 12.5)"><text x="0" y="18" font-family="Virgil, Segoe UI Emoji" font-size="20px" fill="#000000" text-anchor="start" style="white-space: pre;" direction="ltr">Config</text></g><g stroke-linecap="round" transform="translate(72.94921875 305.5140380859375) rotate(0 39.3671875 18.20703125)"><path d="M1.03 1.25 C29.14 2.74, 55.93 -1.16, 79.1 1.94 M0.77 -0.58 C22.72 0.35, 45.36 1.35, 78.34 0.31 M79.28 -0.04 C77.62 9.45, 79.58 17.46, 80.02 34.48 M77.87 0.27 C79.04 11.31, 78.34 23.56, 79 37.31 M78.27 36.71 C48.32 37.13, 18.12 37.3, 0.56 37.54 M79.5 36.71 C56.82 36.1, 33.61 36.51, 0.45 36 M0.81 35.08 C-1.5 25.31, -0.19 11.67, -0.57 -1.01 M0.88 37.13 C0.38 26.44, 0.17 17.78, -0.55 -0.43" stroke="#000000" stroke-width="1" fill="none"></path></g><g transform="translate(170.0546875 311.6195068359375) rotate(0 41.5 12.5)"><text x="0" y="18" font-family="Virgil, Segoe UI Emoji" font-size="20px" fill="#000000" text-anchor="start" style="white-space: pre;" direction="ltr">AppError</text></g><g stroke-linecap="round" transform="translate(162.19140625 305.8812255859375) rotate(0 47.80859375 18.427734375)"><path d="M-1 -0.85 C33.78 -1.82, 64.25 1.19, 95.24 0.82 M0.54 -0.02 C26.84 1.04, 52.51 0.03, 95.99 0.71 M96.2 0.28 C93.87 8.18, 93.59 17.47, 93.99 37.59 M95.08 -0.76 C95.19 8.53, 95.88 19.4, 96.51 37.69 M96.71 36.57 C72.98 35.12, 48.5 36.04, 0.17 35.86 M95.23 37.52 C68.79 38.16, 41.27 37.52, 0.28 37.53 M-1.43 35.47 C-0.18 26.54, 1.31 14.12, 1.5 0.27 M0.59 35.92 C0 29.03, 0.09 21.8, 0.21 -0.98" stroke="#000000" stroke-width="1" fill="none"></path></g><g transform="translate(352.345703125 343.2523193359375) rotate(0 38 12.5)"><text x="0" y="18" font-family="Virgil, Segoe UI Emoji" font-size="20px" fill="#000000" text-anchor="start" style="white-space: pre;" direction="ltr">Parsers</text></g><g stroke-linecap="round" transform="translate(343.138671875 344.2679443359375) rotate(0 45.216796875 14.720703125)"><path d="M0.61 -0.86 C31.06 -0.17, 63.43 0.38, 91.55 1.9 M-0.73 -0.95 C21.32 0.6, 43.82 0.35, 91.05 0.25 M90.71 -1.64 C92.06 5.18, 90.01 12.13, 91.83 31.23 M91.17 -0.59 C90.92 8.56, 89.79 15.03, 91.4 28.46 M92.13 27.56 C57.21 31.06, 26.27 31.85, -1.06 27.46 M89.66 29.78 C65.59 29.65, 40.61 29.86, 0.44 30.3 M0.99 29.07 C-1.3 17.38, 0.69 10.16, 1.55 -1.99 M-0.04 30.4 C-0.15 22.7, 1.17 17.4, -0.25 -0.53" stroke="#000000" stroke-width="1" fill="none"></path></g><g transform="translate(487.20703125 340.5609130859375) rotate(0 79.5 12.5)"><text x="0" y="18" font-family="Virgil, Segoe UI Emoji" font-size="20px" fill="#000000" text-anchor="start" style="white-space: pre;" direction="ltr">SearchPredicate</text></g><g stroke-linecap="round" transform="translate(483.24609375 336.9085693359375) rotate(0 82.0390625 15.6015625)"><path d="M-0.49 -0.28 C44.01 -0.67, 89.59 0.6, 163.18 -1.36 M-0.96 0.16 C64.17 -1.68, 126.59 -1.25, 164.76 -0.78 M163.54 0.43 C164.69 12.58, 164.56 21.76, 164.82 30.16 M164.4 -0.81 C163.03 7.71, 164.6 15.77, 163.74 32.17 M163.48 32.55 C110.53 31.57, 55.89 31.01, -1.16 31.91 M164.68 31.95 C117.21 30.87, 72.23 30.3, -0.67 31.18 M-0.02 29.76 C0.57 21.65, 1.92 9.01, -0.5 0.42 M0.4 31.16 C-0.11 23, -0.49 16.29, 0.83 0.84" stroke="#000000" stroke-width="1" fill="none"></path></g><g transform="translate(499.421875 387.8070068359375) rotate(0 66 12.5)"><text x="0" y="18" font-family="Virgil, Segoe UI Emoji" font-size="20px" fill="#000000" text-anchor="start" style="white-space: pre;" direction="ltr">SearchService</text></g><g stroke-linecap="round" transform="translate(494.53515625 384.1546630859375) rotate(0 70.4609375 16.23046875)"><path d="M0.01 -0.59 C40.11 -0.14, 76.3 2.48, 139.37 0.89 M-0.95 -0.12 C28.17 -0.47, 56.6 -0.5, 140.55 0.14 M142.1 0.6 C139.95 9.6, 139.95 16.89, 139.79 31.01 M140.56 0.7 C140.29 10.45, 141.63 21.82, 141.31 32.67 M140.94 30.87 C102.35 31.13, 65.55 31.89, -1.48 31.1 M141.71 32.63 C90.41 30.59, 39.46 31.8, -0.66 32.31 M1.52 34.17 C0.17 22.25, 0.65 12.14, 0.58 -0.06 M-0.27 32.06 C0.96 22.25, 0.85 10.5, 0.3 0.7" stroke="#000000" stroke-width="1" fill="none"></path></g><g stroke-linecap="round"><g transform="translate(312.689453125 314.72052001953125) rotate(0 -26.42012949193827 -51.13730791153853)"><path d="M-0.88 -0.84 C-9.71 -18.02, -44.07 -86.7, -52.47 -103.6 M0.86 1.33 C-8.22 -15.63, -44.94 -84.67, -53.7 -102.23" stroke="#000000" stroke-width="1" fill="none"></path></g><g transform="translate(312.689453125 314.72052001953125) rotate(0 -26.42012949193827 -51.13730791153853)"><path d="M-33.03 -82.81 C-39.63 -87.98, -44.94 -95.05, -53.22 -101.12 M-32.42 -80.94 C-36.9 -85.89, -40.29 -89.26, -53.54 -101.46" stroke="#000000" stroke-width="1" fill="none"></path></g><g transform="translate(312.689453125 314.72052001953125) rotate(0 -26.42012949193827 -51.13730791153853)"><path d="M-51.25 -73.38 C-51.55 -81.65, -50.6 -91.96, -53.22 -101.12 M-50.65 -71.5 C-51.47 -78.42, -51.16 -83.71, -53.54 -101.46" stroke="#000000" stroke-width="1" fill="none"></path></g></g></svg>