<svg version="1.1" xmlns="http://www.w3.org/2000/svg" viewBox="0 0 987.015625 461.3671875" width="987.015625" height="461.3671875">
  <!-- svg-source:excalidraw -->
  
  <defs>
    <style>
      @font-face {
        font-family: "Virgil";
        src: url("https://excalidraw.com/Virgil.woff2");
      }
      @font-face {
        font-family: "Cascadia";
        src: url("https://excalidraw.com/Cascadia.woff2");
      }
    </style>
  </defs>
  <rect x="0" y="0" width="987.015625" height="461.3671875" fill="#ffffff"></rect><g stroke-linecap="round" transform="translate(755.99609375 348.359130859375) rotate(0 92.265625 28.48046875)"><path d="M-1.23 0.64 C62.5 2.97, 123.03 -0.19, 183.16 -1.2 M-0.12 -0.98 C59.71 1.95, 116.62 1.1, 185.03 0.71 M186.22 -1.22 C182.92 17.17, 185.42 34.34, 185.34 56.09 M184.51 0.55 C185.14 15.27, 183.99 30.61, 183.94 56.12 M186.41 55.35 C110.75 59.42, 37.44 58.1, -0.61 58.95 M184.92 57.37 C111.82 58.03, 40.33 58.07, 0.76 57.94 M0.39 58.58 C0.65 39.96, -0.02 25.24, 1.85 0.99 M-0.8 57.88 C-1.13 40.38, -0.9 24.59, 0.72 0.48" stroke="#000000" stroke-width="1" fill="none"></path></g><g transform="translate(471.3671875 165.245849609375) rotate(0 33.5 12.5)"><text x="0" y="18" font-family="Virgil, Segoe UI Emoji" font-size="20px" fill="#000000" text-anchor="start" style="white-space: pre;" direction="ltr">Loader</text></g><g transform="translate(762.48046875 354.841552734375) rotate(0 87.5 12.5)"><text x="87.5" y="18" font-family="Virgil, Segoe UI Emoji" font-size="20px" fill="#000000" text-anchor="middle" style="white-space: pre;" direction="ltr">InMemoryIndex[A]</text></g><g transform="translate(788.3515625 378.898193359375) rotate(0 56 12.5)"><text x="0" y="18" font-family="Virgil, Segoe UI Emoji" font-size="20px" fill="#000000" text-anchor="start" style="white-space: pre;" direction="ltr">(key, value)</text></g><g transform="translate(586.14453125 164.003662109375) rotate(0 36.5 12.5)"><text x="0" y="18" font-family="Virgil, Segoe UI Emoji" font-size="20px" fill="#000000" text-anchor="start" style="white-space: pre;" direction="ltr">Indexer</text></g><g transform="translate(358.75390625 165.085693359375) rotate(0 33 12.5)"><text x="0" y="18" font-family="Virgil, Segoe UI Emoji" font-size="20px" fill="#000000" text-anchor="start" style="white-space: pre;" direction="ltr">Parser</text></g><g transform="translate(351.5546875 102.835693359375) rotate(0 32 12.5)"><text x="0" y="18" font-family="Virgil, Segoe UI Emoji" font-size="20px" fill="#000000" text-anchor="start" style="white-space: pre;" direction="ltr">Source</text></g><g stroke-linecap="round" transform="translate(340.91796875 94.550537109375) rotate(0 43.90625 20.390625)"><path d="M1.84 1.19 C28.6 -1.69, 59.57 1.01, 88.8 0.42 M0.98 1 C24.35 0.86, 49.87 -0.08, 88.4 -0.95 M88.98 -1.17 C88.29 11.21, 88.66 19.1, 89.45 40.66 M88.67 0.65 C88.82 14.31, 88.03 27.29, 86.94 41.39 M87.94 40.23 C61.1 39.37, 36.66 41.88, 0.64 39.82 M88.1 40.42 C61.69 41.69, 35.38 41.9, -0.57 41.62 M0.22 38.79 C0.3 29.39, 0.3 21.46, -1.59 -0.16 M0 39.8 C0.14 29.2, 0.47 16.81, 0.07 -0.97" stroke="#000000" stroke-width="1" fill="none"></path></g><g stroke-linecap="round" transform="translate(463.56640625 156.718505859375) rotate(0 40.41796875 19.62109375)"><path d="M-1.35 0.71 C30.59 -0.46, 59.21 -0.24, 78.94 0.44 M-0.05 0.66 C21.92 0.06, 44.77 0.48, 81.29 0.74 M80.13 1.52 C82.25 10.86, 81.49 23.41, 79.58 41.08 M81.01 -0.49 C81.15 12.87, 81.29 25.93, 80.91 39.06 M78.99 40.16 C54.25 38.12, 31.58 37.94, -1.49 41.02 M81.05 39.37 C50.42 39.44, 20.33 39.62, -0.27 39.48 M1.81 38.89 C0.29 25.57, 1.53 12.28, 1.16 -0.06 M0.79 38.86 C-0.37 26.57, -0.45 13.25, -0.8 0.97" stroke="#000000" stroke-width="1" fill="none"></path></g><g stroke-linecap="round" transform="translate(576.92578125 157.640380859375) rotate(0 43.189453125 18.958984375)"><path d="M-0.68 1.78 C17.1 -1.03, 37.7 1.91, 87.62 -0.83 M0.53 -0.32 C28.5 0.01, 55.81 0.53, 86.53 0.72 M85.44 1.59 C84.82 15.96, 86.25 30.07, 87.03 36.36 M86.4 -0.32 C85.63 13.56, 87.2 27.98, 86.46 37.17 M85.27 36.98 C59.02 39.23, 33.35 36.99, 1.01 37.26 M86.76 38.18 C68.09 36.95, 50.07 36.91, 0.58 38.46 M-1.47 39.25 C-0.89 27.3, -1.04 16.75, 0.72 0.2 M-0.69 37.27 C0.43 26.47, 0.24 14.13, -0.69 0.59" stroke="#000000" stroke-width="1" fill="none"></path></g><g stroke-linecap="round" transform="translate(350.890625 159.038818359375) rotate(0 39.3671875 18.20703125)"><path d="M-1.47 1.33 C22.35 1.15, 45.51 1.83, 79.45 0.2 M-0.69 -0.65 C25.51 0.97, 50.04 0.53, 78.05 0.59 M77.93 0.91 C79.08 12.67, 79.26 28.46, 79.15 36.4 M79.29 0.35 C79.06 11.66, 79.6 24.01, 78.37 35.7 M77.08 37.38 C52.3 34.47, 27.96 34.74, 1.75 35.95 M79.3 35.97 C51.33 36.53, 25.2 36.53, -0.79 36.15 M0.41 36.94 C0.57 24.07, 1.29 12.31, -1.92 -1.16 M-0.89 35.89 C0.77 27.3, -0.69 18.09, 0.65 -0.3" stroke="#000000" stroke-width="1" fill="none"></path></g><g transform="translate(757.27734375 137.050537109375) rotate(0 31 12.5)"><text x="0" y="18" font-family="Virgil, Segoe UI Emoji" font-size="20px" fill="#000000" text-anchor="start" style="white-space: pre;" direction="ltr">Ticket</text></g><g transform="translate(868.6015625 135.835693359375) rotate(0 22.5 12.5)"><text x="0" y="18" font-family="Virgil, Segoe UI Emoji" font-size="20px" fill="#000000" text-anchor="start" style="white-space: pre;" direction="ltr">User</text></g><g stroke-linecap="round" transform="translate(752.44140625 133.773193359375) rotate(0 36.734375 16.36328125)"><path d="M-1.13 -0.4 C25.24 1.88, 46.9 1.86, 74.02 -1.89 M-0.85 -0.75 C22.23 1.1, 45.5 0.21, 73.82 -0.32 M74 1.47 C72.96 10.97, 73.14 23.33, 72.8 31.94 M72.49 0.47 C72.82 8.92, 73.96 18.61, 73.16 31.91 M74.62 31.67 C57.02 34.05, 43.1 32.22, -0.54 31.1 M73.44 32.05 C58.16 31.43, 41.26 33.27, -0.43 33.38 M0.8 31.99 C-1.77 22.65, 1.32 13.99, -1.79 1.76 M-0.05 32.4 C0.29 24.9, 0.51 15.44, -0.98 -0.21" stroke="#000000" stroke-width="1" fill="none"></path></g><g stroke-linecap="round" transform="translate(865.41796875 131.948974609375) rotate(0 26.44140625 16.576171875)"><path d="M1.57 1.47 C18.66 -0.4, 36.2 -1.59, 51.86 -1.03 M-0.92 -0.83 C16.62 -0.64, 32.06 -0.45, 52.46 0.97 M51.82 1.18 C52.05 9.48, 54.52 21.63, 52.04 32.41 M53.41 0.38 C52.18 8.81, 52.56 20.36, 52.15 33.93 M54.81 32.44 C41.28 32.56, 26.97 34.09, 0.31 32.55 M53.35 32.58 C39.45 32.83, 28.25 32.25, -0.1 33.01 M0.73 33.57 C1.91 22.94, -0.6 12.81, -0.67 -0.76 M-0.66 32.65 C0.91 21.55, -0.51 7.99, -0.12 -0.54" stroke="#000000" stroke-width="1" fill="none"></path></g><g stroke-linecap="round" transform="translate(737.1953125 91.82373046875) rotate(0 103.32421875 45.978515625)"><path d="M-0.77 1.58 C47.08 -2.41, 93.95 -1.57, 207.25 -0.64 M0.47 -0.77 C45.54 -0.28, 92.16 -1.38, 206.2 0.42 M207.1 0.87 C206.91 22.43, 205.09 39.72, 207.62 93.11 M206.75 -0.08 C206.59 29.15, 206.82 59.16, 205.84 92.57 M206.06 92.03 C137 93.98, 68.16 93.14, 0.19 93.13 M207.42 92.26 C141.96 92.38, 79.64 92.83, 0.56 92.24 M-1.82 92.58 C1.11 71.07, 1.29 49.84, -0.99 0.69 M-0.7 91.08 C-0.17 61.26, -0.8 30.44, 0.51 0.18" stroke="#000000" stroke-width="1" fill="none"></path></g><g transform="translate(746.42578125 97.53857421875) rotate(0 27 12.5)"><text x="0" y="18" font-family="Virgil, Segoe UI Emoji" font-size="20px" fill="#000000" text-anchor="start" style="white-space: pre;" direction="ltr">Model</text></g><g transform="translate(765.29296875 303.48388671875) rotate(0 62.5 12.5)"><text x="0" y="18" font-family="Virgil, Segoe UI Emoji" font-size="20px" fill="#000000" text-anchor="start" style="white-space: pre;" direction="ltr">Document[A]</text></g><g stroke-linecap="round" transform="translate(754.71875 297.52294921875) rotate(0 75.869140625 15.978515625)"><path d="M-0.09 0.99 C49.83 1.2, 99.01 1.36, 150.12 -1.91 M0.12 -0.14 C56.11 -0.4, 110.36 0.78, 151.33 0.95 M151.5 0.74 C150.12 6.99, 150.48 14.6, 153.73 31.14 M152.48 0.24 C152.77 6.43, 152.74 13.81, 152.64 32.71 M151.12 32.74 C104.86 29.74, 56.88 31.73, -1.9 33.67 M152.44 31.93 C105.34 31.29, 60.36 32.34, -0.64 31.35 M0.67 31.51 C-1.41 19.19, 1.27 9.42, -0.21 1.06 M0.55 31.79 C-0.92 20.73, -1.05 8.95, -0.42 0.5" stroke="#000000" stroke-width="1" fill="none"></path></g><g stroke-linecap="round" transform="translate(318.29296875 42.06982421875) rotate(0 183.501953125 89.01171875000003)"><path d="M-0.44 -0.37 C78.49 1.48, 156.37 1.44, 366.29 -1.13 M0.19 0.3 C91.99 0.05, 183.01 0, 366.39 0.37 M365.08 1.16 C365.39 35.86, 363.57 70.42, 368.62 178.07 M366.36 0.93 C365.86 69.56, 364.94 139.64, 366.99 178.98 M366.83 178.38 C263.75 178.64, 160.64 179.07, 0.25 178.27 M366.61 177.61 C259.47 176.64, 151.51 177.07, -0.51 178.18 M-1.27 176.62 C-2.38 114.45, -1.37 52.43, 0.18 1.87 M0.76 178.08 C0.24 137.12, -0.46 94.77, -0.51 -0.73" stroke="#000000" stroke-width="1" fill="none"></path></g><g transform="translate(335.37890625 50.59326171875) rotate(0 32 12.5)"><text x="0" y="18" font-family="Virgil, Segoe UI Emoji" font-size="20px" fill="#000000" text-anchor="start" style="white-space: pre;" direction="ltr">Feeder</text></g><g stroke-linecap="round" transform="translate(737.66796875 247.71826171875) rotate(0 111.134765625 88.111328125)"><path d="M-1.02 -0.6 C78.85 0.46, 157.81 -1.44, 220.7 -1.45 M0.78 -0.54 C65.17 -1.12, 131.99 -0.52, 222.53 0.52 M222.2 0.76 C222.18 65.28, 220.61 134.31, 223.58 176.73 M223.06 -0.61 C223.09 67.42, 222.86 132.14, 223.12 175.24 M221.53 175.66 C175.34 177.36, 129 174.56, -0.8 177.12 M222.81 175.44 C172.72 173.74, 124.67 173.77, -0.38 175.61 M-0.02 176.99 C-0.29 130.76, -0.81 86.62, -1.09 1.8 M-0.05 177.06 C0.47 132.43, -0.17 87.75, -0.34 0.95" stroke="#000000" stroke-width="1" fill="none"></path></g><g transform="translate(748.83984375 257.80029296875) rotate(0 59.5 12.5)"><text x="0" y="18" font-family="Virgil, Segoe UI Emoji" font-size="20px" fill="#000000" text-anchor="start" style="white-space: pre;" direction="ltr">SearchIndex</text></g><g transform="translate(449.3984375 98.47998046875) rotate(0 60 12.5)"><text x="0" y="18" font-family="Virgil, Segoe UI Emoji" font-size="20px" fill="#000000" text-anchor="start" style="white-space: pre;" direction="ltr">Transformer</text></g><g stroke-linecap="round" transform="translate(444.796875 93.33935546875) rotate(0 63.89453125 18.142578125)"><path d="M1 -0.66 C30.32 2.26, 64.07 1.74, 129 -0.86 M0.34 -0.24 C33.35 -1.66, 66.78 -0.96, 128.64 0.88 M127.34 -0.6 C125.8 9.2, 128.31 17.41, 129.52 34.89 M126.89 0.09 C128.51 11.26, 126.93 23.26, 127.91 36.06 M128.01 37.09 C77.45 34.3, 28.71 34.79, -1.82 34.84 M127.56 35.89 C84.83 36.82, 43.39 36.97, 0.2 36.03 M-0.12 36.95 C1.16 27.24, 1.83 15.71, 1.35 0.05 M-0.35 36.3 C1.26 23.06, -0.11 10.13, 0.76 0.23" stroke="#000000" stroke-width="1" fill="none"></path></g><g stroke-linecap="round" transform="translate(321.0703125 247.85888671875) rotate(0 168.087890625 93.591796875)"><path d="M-0.75 1.34 C106.45 0.33, 211.96 0.87, 335.95 -1.29 M-0.3 -0.38 C68.13 -0.44, 136 -0.02, 335.6 -0.63 M335.35 1.95 C336.3 37.2, 334.8 76.81, 337.47 187.39 M335.49 0.31 C335.39 74.11, 335.06 147.21, 335.26 187.24 M336.11 187.38 C229.66 186.02, 121.76 185.32, 0.84 186.64 M335.79 187.55 C233.43 187.75, 130.98 187.62, 0.22 186.83 M1.87 186.26 C0.44 120.21, 0.46 53.39, 0.5 1.05 M0.71 186.52 C-1.2 113.76, 0.02 42.05, -0.68 -0.14" stroke="#000000" stroke-width="1" fill="none"></path></g><g transform="translate(335.28125 252.67529296875) rotate(0 56 12.5)"><text x="0" y="18" font-family="Virgil, Segoe UI Emoji" font-size="20px" fill="#000000" text-anchor="start" style="white-space: pre;" direction="ltr">Search API</text></g><g transform="translate(342.109375 306.24560546875) rotate(0 27 12.5)"><text x="0" y="18" font-family="Virgil, Segoe UI Emoji" font-size="20px" fill="#000000" text-anchor="start" style="white-space: pre;" direction="ltr">Query</text></g><g transform="translate(469.23828125 306.06982421875) rotate(0 64 12.5)"><text x="0" y="18" font-family="Virgil, Segoe UI Emoji" font-size="20px" fill="#000000" text-anchor="start" style="white-space: pre;" direction="ltr">SearchResult</text></g><g transform="translate(468.28125 372.67529296875) rotate(0 66 12.5)"><text x="0" y="18" font-family="Virgil, Segoe UI Emoji" font-size="20px" fill="#000000" text-anchor="start" style="white-space: pre;" direction="ltr">SearchService</text></g><g stroke-linecap="round" transform="translate(332.90234375 306.64404296875) rotate(0 36.837890625 15.185546875)"><path d="M1.91 -1.75 C22.72 -0.44, 50.25 0.38, 74.24 1.19 M-0.29 0.81 C24.82 -0.08, 51.56 0.26, 74.61 0.28 M74.14 -1.13 C75.09 8.84, 73.68 18.39, 75.43 29.99 M74.37 0.13 C72.79 10.54, 72.61 21.36, 73.11 29.49 M74.09 28.51 C59.53 31.41, 44.34 28.96, 1.76 28.58 M73.22 30.24 C56.54 31.08, 38.73 31.44, -0.1 30.46 M1.21 30.92 C-1.07 22.03, 1.07 13.22, 1.98 1.4 M-0.74 29.46 C-0.79 24.07, 1.1 16.2, -0.31 -0.05" stroke="#000000" stroke-width="1" fill="none"></path></g><g stroke-linecap="round" transform="translate(464.359375 301.55029296875) rotate(0 68.80078125 16.693359375)"><path d="M-1.27 -0.63 C28.29 0.03, 57.36 -1.7, 138.7 -1.26 M0.06 -0.34 C28.45 -0.01, 55.69 -1.3, 137.88 0.93 M138.8 -1.61 C137.42 9.23, 136.25 17.24, 137.37 32.12 M138.59 0.46 C138.18 11.04, 137.1 19.77, 136.71 33.47 M137.23 34.44 C87.16 33.89, 40.72 34.6, 1.19 34.56 M137.66 32.84 C103.05 34.15, 67.67 33.5, 0.95 33.44 M-1.21 33.62 C0.33 25.09, 0.7 15.55, 0.3 -1.39 M-0.43 33.97 C0.78 24.04, -0.99 13.86, 0.31 0.64" stroke="#000000" stroke-width="1" fill="none"></path></g><g stroke-linecap="round" transform="translate(464.3203125 369.02294921875) rotate(0 70.4609375 16.23046875)"><path d="M-1.51 -0.07 C30.06 1.17, 64.2 1.63, 141.96 0.63 M-0.91 -0.68 C39.24 -0.2, 79.63 0.6, 141.66 -0.9 M140.11 1.15 C141.42 9.16, 141.35 20.05, 139.99 32.58 M141.32 -0.86 C141.1 7.01, 140.13 14.45, 141.12 31.58 M139.79 30.7 C100.34 33.55, 57.39 32.69, -1.47 31.84 M141.03 32.54 C100.58 33.92, 58.1 32.87, -0.79 32.69 M-0.91 30.47 C-0.16 21.15, -1.44 5.18, -1.32 1.37 M-0.75 32.44 C0.44 24.21, 0.14 14.56, -0.74 -0.13" stroke="#000000" stroke-width="1" fill="none"></path></g><g stroke-linecap="round" transform="translate(28.5234375 101.62451171875) rotate(0 120.015625 70.90234375)"><path d="M-1.2 -1.13 C70.27 2.17, 142.73 2.4, 239.86 -0.7 M-0.13 -0.17 C48.3 -1.12, 97.87 -0.66, 239.59 0.01 M239.16 1.06 C241.7 50.26, 237.88 104.39, 240.64 141.39 M240.63 0 C239.55 53.24, 239.2 107.9, 240.49 141.01 M239.44 140.2 C149.68 139.37, 60.38 139.53, -0.48 141.61 M240.27 141.67 C156.03 142.63, 70.24 141.71, 0.35 142.2 M-1.56 143.7 C-0.17 92.96, 1.2 45.73, 1.81 -0.37 M0.87 142.36 C-1.76 97.2, -2.07 52.68, -0.45 0.92" stroke="#000000" stroke-width="1" fill="none"></path></g><g transform="translate(43.6953125 109.44091796875) rotate(0 27 12.5)"><text x="0" y="18" font-family="Virgil, Segoe UI Emoji" font-size="20px" fill="#000000" text-anchor="start" style="white-space: pre;" direction="ltr">Client</text></g><g transform="translate(134.96484375 189.07763671875) rotate(0 59.5 12.5)"><text x="0" y="18" font-family="Virgil, Segoe UI Emoji" font-size="20px" fill="#000000" text-anchor="start" style="white-space: pre;" direction="ltr">SearchClient</text></g><g transform="translate(66.73828125 166.95654296875) rotate(0 16.5 12.5)"><text x="16.5" y="18" font-family="Virgil, Segoe UI Emoji" font-size="20px" fill="#000000" text-anchor="middle" style="white-space: pre;" direction="ltr">App</text></g><g transform="translate(154.0546875 135.71044921875) rotate(0 13.5 12.5)"><text x="0" y="18" font-family="Virgil, Segoe UI Emoji" font-size="20px" fill="#000000" text-anchor="start" style="white-space: pre;" direction="ltr">DI</text></g><g stroke-linecap="round" transform="translate(143.359375 133.61669921875) rotate(0 23.451171875 13.71484375)"><path d="M0.64 -0.42 C13.43 1.53, 25.13 0.49, 46.57 1.47 M0.23 0.22 C14.24 -0.34, 29.32 0.11, 46.67 0.13 M47.52 -0.48 C48.27 8.09, 48.02 11.67, 47.03 26.98 M46.56 0.45 C46.42 7.32, 46.49 17.2, 46.33 27.18 M47.78 27.01 C36.1 27.46, 26.62 27.94, -1.12 29.39 M47.59 26.81 C32.56 27.88, 18.25 26.7, 0.37 28.01 M-1.66 27.51 C1.34 21.05, 1.62 16.96, -0.73 0.43 M0.45 26.71 C1.07 17.28, 0.35 6.79, -0.17 0.84" stroke="#000000" stroke-width="1" fill="none"></path></g><g stroke-linecap="round" transform="translate(127.375 184.92529296875) rotate(0 64.525390625 18.1015625)"><path d="M1.25 -0.67 C52.76 0.89, 101.74 0.38, 130.47 -0.68 M0.97 0.02 C26.28 0.63, 51.88 1.77, 128.64 0.13 M128.38 0.33 C127.96 11.74, 129.92 21.22, 129.26 34.64 M128.48 -0.12 C128.14 7.9, 128.66 14.7, 129.85 36.66 M129 37.78 C78.13 34.22, 30.67 35.76, 0.13 36.86 M129.56 36.6 C78.37 36.33, 29.55 36.32, -0.1 36.93 M1.51 35.36 C0.49 21.64, 0.22 8.19, -1.5 1.03 M-0.5 35.29 C-0.72 24.46, 0.03 13.17, 0.04 0.66" stroke="#000000" stroke-width="1" fill="none"></path></g><g stroke-linecap="round" transform="translate(59.9921875 166.07763671875) rotate(0 24.05859375 15.583984375)"><path d="M0.66 1.71 C15.85 0.61, 35.35 0.77, 46.24 -0.57 M0.73 0.93 C14.57 0.62, 29.48 -0.37, 48.4 -0.17 M49.15 0.37 C46.64 8.51, 47.19 17.78, 46.12 30.73 M48.78 0.28 C47.17 9.47, 47.18 17.32, 47.36 31.31 M49.09 29.87 C30.16 31.23, 11.14 31.54, -0.77 29.38 M49.09 30.85 C37.08 31.52, 23.95 31.94, 0.98 31.19 M1.56 31.9 C1.48 20.01, -0.6 8.35, 1.54 0.84 M0.72 32.15 C0.09 20.05, 0.4 9.51, 0.89 -0.08" stroke="#000000" stroke-width="1" fill="none"></path></g><g stroke-linecap="round"><g transform="translate(260.16015625 213.519287109375) rotate(0 32.20817234291229 34.715680344342246)"><path d="M0.81 0.43 C11.42 12.23, 53.97 58.28, 64.64 69.82 M-0.22 -0.39 C10.22 11.16, 53.33 56.74, 64.12 68.09" stroke="#000000" stroke-width="1" fill="none"></path></g><g transform="translate(260.16015625 213.519287109375) rotate(0 32.20817234291229 34.715680344342246)"><path d="M38 56.06 C48.66 61.27, 58.74 66.7, 62.46 66.29 M37.42 54.04 C45.68 58.07, 52.9 61.69, 63.74 67.64" stroke="#000000" stroke-width="1" fill="none"></path></g><g transform="translate(260.16015625 213.519287109375) rotate(0 32.20817234291229 34.715680344342246)"><path d="M52.9 41.95 C57.75 52.66, 62.13 63.48, 62.46 66.29 M52.32 39.93 C55.98 48.34, 58.71 56.22, 63.74 67.64" stroke="#000000" stroke-width="1" fill="none"></path></g></g><g stroke-linecap="round"><g transform="translate(735.1640625 138.386474609375) rotate(0 -27.338727450980855 -6.683110924065119)"><path d="M0.29 -0.28 C-8.59 -2.37, -45.04 -11.09, -54.14 -13.09 M-1.01 -1.47 C-9.97 -3.36, -45.96 -10.27, -54.97 -11.83" stroke="#000000" stroke-width="1" fill="none"></path></g></g><g stroke-linecap="round"><g transform="translate(686.515625 197.464599609375) rotate(0 25.609282983676565 26.26374879979994)"><path d="M0.74 1.09 C9.47 9.93, 42.96 43.38, 51.55 51.91 M-0.34 0.61 C8.29 9.21, 41.74 41.82, 50.41 50.13" stroke="#000000" stroke-width="1" fill="none"></path></g><g transform="translate(686.515625 197.464599609375) rotate(0 25.609282983676565 26.26374879979994)"><path d="M24.84 37.28 C30.24 41.11, 37.11 43.09, 49.42 49.66 M22.22 38.38 C32.63 42.21, 43.1 47.33, 50.52 49.82" stroke="#000000" stroke-width="1" fill="none"></path></g><g transform="translate(686.515625 197.464599609375) rotate(0 25.609282983676565 26.26374879979994)"><path d="M39.11 22.54 C41.12 29.81, 44.74 35.15, 49.42 49.66 M36.49 23.64 C41.44 32.88, 46.58 43.52, 50.52 49.82" stroke="#000000" stroke-width="1" fill="none"></path></g></g><g stroke-linecap="round"><g transform="translate(731.4140625 326.659912109375) rotate(0 -36.710811791173114 9.48059651968535)"><path d="M0.95 -0.39 C-11.11 3.02, -60.77 17.32, -73.28 20.6 M-0.01 -1.64 C-12.17 1.38, -62.4 15.06, -74.37 18.68" stroke="#000000" stroke-width="1" fill="none"></path></g><g transform="translate(731.4140625 326.659912109375) rotate(0 -36.710811791173114 9.48059651968535)"><path d="M-50.71 0.64 C-54.78 3.31, -62.38 8.95, -74.99 18.53 M-50.12 0.3 C-56.53 4.64, -61.76 10.23, -73.88 19.19" stroke="#000000" stroke-width="1" fill="none"></path></g><g transform="translate(731.4140625 326.659912109375) rotate(0 -36.710811791173114 9.48059651968535)"><path d="M-45.1 20.38 C-50.44 18.71, -59.28 19.98, -74.99 18.53 M-44.51 20.04 C-52.39 19.71, -58.96 20.61, -73.88 19.19" stroke="#000000" stroke-width="1" fill="none"></path></g></g><g stroke-linecap="round" transform="translate(10 10) rotate(0 483.5078125 220.68359375)"><path d="M0.79 0.59 C305.88 -2.62, 610.97 -3.5, 967.31 0.46 M-0.18 -0.26 C283.46 2.47, 567.36 2.79, 967.29 -0.31 M966.45 0.66 C969.02 112.97, 969.77 225.32, 967.62 440.67 M967.02 -0.04 C966.7 105.18, 966.52 210.42, 966.58 441.2 M966.85 442.01 C592.46 443.86, 217.38 443.97, 0.36 441.43 M967.38 441.65 C749.26 445.27, 531.32 445.49, 0.34 441.47 M0.87 441.26 C1.69 305.44, 0.81 169.97, -0.71 0.01 M0.18 440.91 C-0.06 284.47, -0.33 126.89, 0.33 -0.14" stroke="#000000" stroke-width="1" fill="none"></path></g><g transform="translate(28.70703125 24.265625) rotate(0 54 12.5)"><text x="0" y="18" font-family="Virgil, Segoe UI Emoji" font-size="20px" fill="#000000" text-anchor="start" style="white-space: pre;" direction="ltr">Search App</text></g></svg>